
SVGOMG
Powered by SVGO v2.6.1

Open SVG
Paste markup
Demo
Contribute
About

14.11k → 2.69k 19.1%
<svg width="293" height="183" fill="none" xmlns="http://www.w3.org/2000/svg">
  <rect width="293" height="183" rx="1.5" fill="#113079"/>
  <path fill-rule="evenodd" clip-rule="evenodd" d="M41 110 20 97l21-12-21-12 21-12-21-12 21-12-21-12 22-13 21 12 21-12 21 12 21-12 21 12 20-12h1l20 12 21-12 21 12 21-12 22 13-21 12 21 12-21 12 21 12-21 12 21 13-21 12 21 12-21 12 21 12-21 12 21 12-22 13-21-12-21 12-21-12-21 12-20-12h-1l-20 12-21-12-21 12h-1l-20-12-21 12-22-13 21-12-21-12 21-12-21-12 21-12ZM22 25l20 11 8-4 12-7-20-12-20 12Zm21 12 18 11h2l20-11-20-12-20 12Zm-1 24 2-1 19-11 20 12-20 12-21-12Zm21-12 21-12 20 12-20 12-21-12Zm1 24 20 12 20-12-20-11-20 11ZM42 62l20 11-20 12-20-12 20-11Zm1 48 20-12 20 12-20 11-9-5-11-6Zm4 51-4-3 5-3 15-8 20 11-20 12-16-9Zm57 9-20 12-21-12 21-11 20 11Zm1 0-2-1-19-11 21-11 20 11-20 12Zm-63-36-20 12 20 12 20-12-20-12Zm63 36 21 12 20-12-20-11-20 11h-1Zm21-12-21-12 21-12 20 12-20 12Zm-21-12-21-12 1-1 20-11 20 12-20 12Zm-1 0-20-12-21 12 21 12 20-12Zm-21-12-20 12-20-12 20-12 20 12Zm-21-12-12 7-8 5-20-12 20-12 20 12Zm43-1-21-11 21-12 20 12-20 11Zm20 12-20-11 21-12 20 12-20 12-1-1Zm1 25h1l20-11 20 11-21 12-20-12Zm42 0 19 11 1 1 21-12-21-11-19 11h-1Zm0 1-21 11 20 12 21-12-20-11Zm-64-37-20 11-21-11 21-12 20 12Zm105 37-20 11 20 12 21-12-21-11Zm-21-13-21-12-20 12 20 12 21-12Zm0 0 21-12-21-12-20 12 20 12Zm-21-12 21-12-21-12-20 12 20 12Zm0 0-20 12-21-12 21-12 20 12Zm-22-13h2l20-11-20-12-21 12 19 11ZM84 86l20 11-20 12-21-11 1-1 20-11ZM63 97 42 85l2-1 19-10 20 11-20 12Zm61-13-19-11 21-11 20 11-20 12-2-1Zm-16 12-3 2 21 11 20-12-20-11-18 10Zm60 14 20 11 21-11-21-12-19 11-1 1ZM42 61 22 49l20-12 20 12-20 12Zm189 109 20 12 20-12-20-11-20 11Zm-1-23 20 11-20 12-20-12 20-11Zm0-1-21 12-20-12 12-7 8-5 21 12Zm-83-49-21-12 21-11 20 11-20 12ZM84 85l21-11 20 11-20 12-21-12Zm147 61 20-12 20 12-20 12-20-12Zm20-12 20-12-20-12-20 12 20 12Zm0 0-21-12-20 12 20 12 21-12Zm-42-1 21-11-21-12-8 5-12 7 20 11Zm20-12h1l20-11-20-12-20 12 19 11Zm-41-23-21 11-20-11 1-1 19-11 21 12Zm0-1 21-12-21-11-20 11 20 12Zm-41-24 21 12 20-12-21-11-19 11h-1Zm-42 0L84 61l21-12 20 12-20 12Zm125 24-21 12-20-12 20-11 21 11Zm0 0-20-12 20-11 21 11-21 12Zm-83-48 20-12 21 12-21 12-20-12Zm-21 12 21 12 20-12-20-12-21 12Zm-21-12 21 12 20-12-20-12-21 12Zm42-1h-2l-19-11 1-1 20-11 20 12-20 11Zm-1-23-20 11h-2l-19-11 21-12 20 12Zm-41 0 20 12-20 11-21-11 21-12Zm-1 0L84 13 63 25l21 11 20-11Zm147 61 20 11-20 12-20-11 1-1 19-11Zm-42-1 21-12h-1l-20-11-20 11 20 12Zm22-12 20 12 20-12-20-11-19 11h-1Zm-43 0-20-12 20-12 21 12-21 12Zm-21-37h-1l-19-11 20-12 21 12-21 11Zm63 13-21 12-20-12 20-12 21 12Zm1 0 20-12 20 12-20 12-20-12Zm-21 12 20 12 21-12-21-12-19 12h-1Zm20-13-20-11 1-1 19-11 21 12-21 11Zm-21-12-15-8-5-3 20-12 21 12-21 11Zm-21-11 21 12-21 11-20-11 20-12Zm43 0 20 11 20-11-20-12-20 12ZM22 97l20 12 20-12-20-11-20 11Zm20 85-20-12 20-11 20 11-20 12Z" fill="url(#a)"/>
  <path d="M247 81c0-2 0-3-2-4l-41-23-1 1v30c0 10-2 13-13 22l-33 18c-5 3-6 7-8 9l-4 2v3l40 23h2l6-3c3-2 4-5 9-8 13-7 29-16 32-19 12-8 13-11 13-21V81Z" fill="#C0D6F6"/>
  <path d="m208 79-1 1v4l1 2 13 8 1-1v-4l-1-2-13-8ZM209 68c-1-1-2 0-2 1v6l1 2 35 19 1-1v-6l-1-2-34-19ZM233 77c-1-1-1 0-1 1l1 2 10 5 1-1-1-2-10-5ZM208 65h-1l1 1 6 4 1-1-1-1-6-3ZM208 62h-1l1 1 6 4 1-1-1-1-6-3ZM231 129h2c8-6 10-9 11-13l-1-2-13-8-2 1c0 5-3 7-10 13v2l13 7Z" fill="#3D75E4"/>
  <path d="M201 102h-1l1 1 20 12h1v-1l-21-12ZM195 107v2l20 11v-1l-20-12ZM226 106l1-1-21-12-1 1h1l20 12ZM197 106v1l20 11h1v-1l-21-11ZM204 98h-1l1 1 20 12 1-1c1 0 0 0 0 0l-21-12ZM205 96v1l20 11h1v-1l-21-11ZM199 104v1l20 11h1v-1l-21-11ZM203 100h-1v1l21 12h1v-1l-21-12ZM156 133l-3 1-2 2v2l35 20h2a14 14 0 0 0 4-2v-3l-36-20ZM173 137h2a1172 1172 0 0 0 10-7l-13-8h-2a1162 1162 0 0 1-10 8l13 7ZM211 142h1v-1l-37-21a1 1 0 0 0-1 1l37 21ZM177 119a1 1 0 0 0 0 1l37 20v-1l-37-20ZM183 116h-1v1l37 20h1v-1l-37-20ZM180 117h-1v1l37 21h1v-1l-37-21ZM190 111v1l37 21v-1l-37-21ZM188 113h-1v1l37 21 1-1v-1l-37-20ZM185 114v1l37 21v-1l-37-21ZM206 89h1l36 21a1 1 0 0 0 1-2l-37-20-1 1ZM224 93h1l18 11a1 1 0 1 0 1-2l-19-10-1 1ZM225 89a1 1 0 1 0 0 1l18 11a1 1 0 0 0 1-2l-19-10ZM224 96h1l18 11a1 1 0 0 0 1-2l-19-10-1 1ZM180 137h-1v1l19 11v-1l-18-11ZM182 136v1l18 10h1v-1l-19-10ZM177 139h-1v1l20 11v-1l-19-11ZM188 133h-1v1l19 11v-1l-18-11ZM185 134h-1v2l19 10h1v-1l-19-11ZM190 132v1l18 10h1v-1l-19-10Z" fill="#3D75E4"/>
  <path d="m91 83 1 2h-1l-1-2h1ZM87 81l1 2h-1l-1-2h1ZM83 78l2 2-2 1-1-2 1-1ZM79 76l2 2-2 1-1-2 1-1ZM220 34l2 1c0-4 3-5 6-3 2 0 3 1 3 2 2-2 5-3 9-1 5 3 9 10 9 16v2h3c2 2 4 5 4 8s-2 4-4 2l-32-18c-2-1-4-4-4-7s2-4 4-2ZM63 52l-1 2c0-4-3-5-6-3l-2 2c-1-2-4-3-7-1-5 2-8 8-8 13v2h-2c-2 1-4 4-4 6 0 3 2 4 4 2l26-15c2-1 4-3 4-6 0-2-2-3-4-2ZM172 40l1 1 2 1h2v-3l-1-1-2-2-2 1v3ZM166 37h1l2 2 1-1v-4l-3-1-1 1v3ZM172 47l1 1 2 1c1 1 2 0 2-1v-3h-1l-2-2-2 1v3ZM166 43l1 1 2 2 1-1v-4l-3-1-1 1v2ZM119 102c2 0 3-2 3-4 0-1-2-2-3-1l-2 4c0 2 1 2 2 1Zm0-8c3-2 5-1 5 3l-3 12-2 2h-1c-2-1-4-3-4-8a12 12 0 0 1 5-9Z" fill="#C0D6F6"/>
  <path d="M42 98a6 6 0 0 1 2-2h2l2 1 1 2c0 2-1 5-3 6h-2l-2-1-1-1v-1l1-4Z" fill="#A2ABBE"/>
  <path d="M45 100a5 5 0 0 1 1-1l2-1 8 5v2l-2 4h-2l-8-5-1-1 2-3ZM67 125l14-8-2-6-15 8 3 6Z" fill="#6F7A90"/>
  <path d="m64 119 15-8-21-13-15 9 21 12ZM74 129l15-8-8-4-14 8 7 4Z" fill="#A2ABBE"/>
  <path d="m74 147 15-8v-18l-15 8v18Z" fill="#6F7A90"/>
  <path d="M43 107v17c0 3 2 6 4 8l6 3 11 6 10 6v-18l-7-4-3-6-21-12ZM78 130a8 8 0 0 1 2-2h3l11 7 1 2c0 3-2 6-4 8h-3l-11-7-1-1v-1c0-2 0-4 2-6Z" fill="#495469"/>
  <path d="M84 133a11 11 0 0 1 3-2l3-1 9 5 1 4c1 3-2 7-5 9h-4l-8-4-1-1-1-2v-1c0-2 1-5 3-7Z" fill="#A2ABBE"/>
  <path d="m86 137 1-1 12-7 5 3-12 6v1l-1 1v13l1 1-5-3-1-1v-13Z" fill="#495469"/>
  <path d="m92 138 12-6 1 1v13l-1 1-12 7-1-1v-13l1-2Z" fill="#6F7A90"/>
  <path d="M98 137c-3 2-5 6-5 9s2 4 5 3c3-2 5-6 5-9s-2-5-5-3Z" fill="#81ABEE"/>
  <path d="m78 115 3-2 10 5v6l-3 2-10-6v-5Z" fill="#495469"/>
  <path d="M86 121a5 5 0 0 1 1-1v-1a5 5 0 0 1 2-1 4 4 0 0 1 3 0l8 5h-2c-2 1-3 3-3 5l1 2-8-4a5 5 0 0 1-1-1 4 4 0 0 1-1-2v-2Z" fill="#E9A35D"/>
  <path d="M98 123h3v1l1 1v1a5 5 0 0 1 0 1v1a5 5 0 0 1-1 2h-1l-1 1h-3v-1l-1-2c0-2 1-4 3-5Z" fill="#F8D6B5"/>
  <path d="M56 104a2 2 0 0 1 0-1l3-2a1 1 0 0 0-1 1v7l-2 1v-6Z" fill="#495469"/>
  <path d="M56 97h4l17 10a8 8 0 0 1 2 2 12 12 0 0 1 3 7v7l-2 1v-6a7 7 0 0 0-1-2 11 11 0 0 0-1-4 12 12 0 0 0-2-2l-1-1-18-10-1-1h-2l2-1Z" fill="#A2ABBE"/>
  <path d="M52 108v-8l2-2h2l1 1 18 10 2 1a12 12 0 0 1 2 6l1 2v6l-4-2v-7a4 4 0 0 0-1-2l-18-10h-1v7l-4-2Z" fill="#495469"/>
  <path d="m45 117 4 2v-6l-4-2v6ZM52 117l1-1 2 3-2 1-1-3ZM52 123l1-1 2 3-2 1-1-3ZM52 129l1-1 2 3-2 1-1-3ZM45 125l1 3h1l1-1v-3l-1-3h-1l-1 1v3Z" fill="#2E3648"/>
  <path d="M129 66v-1l2-10-2-2-4 3v14l2 1 1-2 1-3Z" fill="#F196A5"/>
  <path d="M129 71c-1 1-2 0-2-1V57l4-2v13l-2 3Z" fill="#E14761"/>
  <path d="m123 60-8-13 15-9 4 1c3 1 5 5 5 9l-1 3-15 9Z" fill="#3D75E4"/>
  <path d="m100 48 2-1 4-1c6 0 12-1 17-4l4 1c3 2 5 6 5 9l-2 4a37 37 0 0 0-12 15h-1l-1 1-1 1c-2 1-5 1-8-1-5-3-10-11-10-18 0-3 1-5 3-6Z" fill="#C0D6F6"/>
  <path d="M100 64c-4-7-4-14 0-16 4-3 11 1 15 8s4 14 0 17c-4 2-11-2-15-9Z" fill="#81ABEE"/>
  <path d="M101 64c-4-6-4-13 0-15 3-2 9 1 13 7 3 7 3 13 0 15-4 2-10-1-13-7Z" fill="#3D75E4"/>
  <path d="m115 60-7 2-2-4 6-4 3 6Z" fill="#E14761"/>
  <path d="M106 61v-3l3 1v3c-1 1-2 0-3-1Z" fill="#F196A5"/>
  <path d="m126 67-1-1v-3h1v4Z" fill="#E14761"/>
  <path d="M163 79c2 1 3 3 3 5v12c0 1-1 2-3 1l-6-3h-8s-1 0 0 0l1-4-3-2c-2-1-3-3-3-5V71c0-2 1-3 3-2l16 10Z" fill="#E9A35D"/>
  <path d="m172 76 2 4v9l-2 1-3-2 2 5h-1l-5-7-1-1-4-2-2-4v-8c0-2 1-2 2-2l12 7Z" fill="#3D75E4"/>
  <path d="m166 78 1 3-1 1-1-3 1-1ZM170 81l1 2-1 1-1-2c0-1 0-2 1-1ZM162 76l1 2c0 1 0 2-1 1l-1-2 1-1Z" fill="#C0D6F6"/>
  <defs>
    <radialGradient id="a" cx="0" cy="0" r="1" gradientUnits="userSpaceOnUse" gradientTransform="matrix(0 85.5 -126.5 0 147 98)">
      <stop stop-color="#3D75E4" stop-opacity=".6"/>
      <stop offset="1" stop-color="#3D75E4" stop-opacity="0"/>
    </radialGradient>
  </defs>
</svg>
